<svg id="Layer_1" data-name="Layer 1" xmlns="http://www.w3.org/2000/svg" xmlns:xlink="http://www.w3.org/1999/xlink" viewBox="0 0 283.46 283.46"><defs><style>.cls-1{fill:url(#linear-gradient);}.cls-2{fill:#fff;}</style><linearGradient id="linear-gradient" x1="21.69" y1="231.27" x2="249.32" y2="63.55" gradientUnits="userSpaceOnUse"><stop offset="0" stop-color="#649730"/><stop offset="1" stop-color="#9dc41b"/></linearGradient></defs><circle class="cls-1" cx="142.36" cy="142.36" r="139.11"/><path class="cls-2" d="M129.3,58.89V225.83a2.83,2.83,0,0,1-2.84,2.83H72.23a2.83,2.83,0,0,1-2.84-2.83V58.89a2.84,2.84,0,0,1,2.84-2.84h54.23A2.84,2.84,0,0,1,129.3,58.89Z"/><path class="cls-2" d="M215.33,58.86V92.1a2.81,2.81,0,0,1-2.82,2.81h-59.6a2.81,2.81,0,0,1-2.81-2.81V58.86a2.81,2.81,0,0,1,2.81-2.81h59.6A2.81,2.81,0,0,1,215.33,58.86Z"/><path class="cls-2" d="M215.33,225.84V157.3a2.83,2.83,0,0,0-5-1.79L153.91,224a2.82,2.82,0,0,0,2.18,4.62H212.5A2.83,2.83,0,0,0,215.33,225.84Z"/><path class="cls-2" d="M150.1,118.55v68.51a2.83,2.83,0,0,0,5,1.8l56.39-68.51a2.83,2.83,0,0,0-2.19-4.63H152.93A2.83,2.83,0,0,0,150.1,118.55Z"/></svg>